<svg width="32" height="32" viewBox="0 0 32 32" fill="none" xmlns="http://www.w3.org/2000/svg">
<path d="M20 22.6667V24.0001C20 26.2092 18.2092 28.0001 16 28.0001C13.7909 28.0001 12 26.2092 12 24.0001V22.6669M20 22.6667L12 22.6669M20 22.6667H25.3334C26.0698 22.6667 26.6667 22.0698 26.6667 21.3334V20.5522C26.6667 20.1986 26.5261 19.8596 26.2761 19.6095L25.5951 18.9285C25.4275 18.7609 25.3334 18.5334 25.3334 18.2963V13.3334C25.3334 13.0982 25.3249 12.8648 25.3073 12.6349M12 22.6669L6.66671 22.6669C5.93033 22.6669 5.33337 22.0695 5.33337 21.3331V20.5522C5.33337 20.1986 5.47396 19.86 5.724 19.6098L6.40499 18.9279C6.57256 18.7603 6.66671 18.5337 6.66671 18.2966V13.3334C6.66671 8.17876 10.8454 4.00008 16 4.00008C16.9488 4.00008 17.8646 4.14166 18.7273 4.40484M25.3073 12.6349C26.9158 11.7165 28 9.9849 28 8.00008C28 5.05456 25.6122 2.66675 22.6667 2.66675C21.1064 2.66675 19.7026 3.33679 18.7273 4.40484M25.3073 12.6349C24.5288 13.0794 23.6274 13.3334 22.6667 13.3334C19.7212 13.3334 17.3334 10.9456 17.3334 8.00008C17.3334 6.61488 17.8615 5.35302 18.7273 4.40484M25.3073 12.6349C25.3073 12.6349 25.3073 12.6349 25.3073 12.6349ZM18.7273 4.40484C18.7279 4.40503 18.7285 4.40522 18.7292 4.40541" stroke="#FF8400" stroke-width="2" stroke-linecap="round" stroke-linejoin="round"/>
</svg>
