<svg width="40" height="40" viewBox="0 0 40 40" fill="none" xmlns="http://www.w3.org/2000/svg">
<rect width="40" height="40" rx="20" fill="#FFD9B0"/>
<path d="M25 18C26.6569 18 28 16.6569 28 15C28 13.3431 26.6569 12 25 12C23.3431 12 22 13.3431 22 15C22 15.1255 22.0077 15.2492 22.0227 15.3706L17.0826 17.8406C16.543 17.3201 15.8089 17 15 17C13.3431 17 12 18.3431 12 20C12 21.6569 13.3431 23 15 23C15.8089 23 16.5431 22.6798 17.0826 22.1593L22.0227 24.6293C22.0077 24.7508 22 24.8745 22 25C22 26.6569 23.3431 28 25 28C26.6569 28 28 26.6569 28 25C28 23.3431 26.6569 22 25 22C24.1911 22 23.457 22.3201 22.9174 22.8406L17.9773 20.3706C17.9923 20.2492 18 20.1255 18 20C18 19.8745 17.9923 19.7508 17.9773 19.6293L22.9174 17.1593C23.4569 17.6798 24.1911 18 25 18Z" fill="#FF8400"/>
</svg>
