<svg width="18" height="19" viewBox="0 0 18 19" fill="none" xmlns="http://www.w3.org/2000/svg">
    <path d="M17 14.2919V8.97511C17 8.46304 16.9995 8.20686 16.9346 7.96858C16.877 7.75741 16.7825 7.55759 16.6546 7.37701C16.5102 7.17324 16.3096 7.00426 15.9074 6.66706L11.1074 2.64206C10.3608 2.016 9.98751 1.70312 9.56738 1.58406C9.19719 1.47914 8.80261 1.47914 8.43242 1.58406C8.01261 1.70303 7.63985 2.01561 6.89436 2.64073L2.09277 6.66706C1.69064 7.00427 1.49004 7.17324 1.3457 7.37701C1.21779 7.55759 1.12255 7.75741 1.06497 7.96858C1 8.20686 1 8.46303 1 8.97511V14.2919C1 15.1849 1 15.6313 1.15224 15.9835C1.35523 16.4532 1.74432 16.8267 2.23438 17.0213C2.60192 17.1672 3.06786 17.1672 3.99974 17.1672C4.93163 17.1672 5.39808 17.1672 5.76562 17.0213C6.25568 16.8267 6.64467 16.4532 6.84766 15.9836C6.9999 15.6314 7 15.1849 7 14.2918V13.3335C7 12.2749 7.89543 11.4168 9 11.4168C10.1046 11.4168 11 12.2749 11 13.3335V14.2918C11 15.1849 11 15.6314 11.1522 15.9836C11.3552 16.4532 11.7443 16.8267 12.2344 17.0213C12.6019 17.1672 13.0679 17.1672 13.9997 17.1672C14.9316 17.1672 15.3981 17.1672 15.7656 17.0213C16.2557 16.8267 16.6447 16.4532 16.8477 15.9835C16.9999 15.6313 17 15.1849 17 14.2919Z" stroke="white" stroke-width="2" stroke-linecap="round" stroke-linejoin="round"/>
</svg>
