<svg width="30" height="30" viewBox="0 0 30 30" fill="none" xmlns="http://www.w3.org/2000/svg">
<path fill-rule="evenodd" clip-rule="evenodd" d="M17.2338 4.75641C16.6653 2.41453 13.3347 2.41453 12.7662 4.75641C12.3989 6.26924 10.6657 6.98717 9.33625 6.17713C7.27827 4.92319 4.92319 7.27827 6.17713 9.33625C6.98717 10.6657 6.26924 12.3989 4.75641 12.7662C2.41453 13.3347 2.41453 16.6653 4.75641 17.2338C6.26924 17.6011 6.98717 19.3343 6.17713 20.6638C4.92319 22.7217 7.27827 25.0768 9.33625 23.8229C10.6657 23.0128 12.3989 23.7308 12.7662 25.2436C13.3347 27.5855 16.6653 27.5855 17.2338 25.2436C17.6011 23.7308 19.3343 23.0128 20.6638 23.8229C22.7217 25.0768 25.0768 22.7217 23.8229 20.6638C23.0128 19.3343 23.7308 17.6011 25.2436 17.2338C27.5855 16.6653 27.5855 13.3347 25.2436 12.7662C23.7308 12.3989 23.0128 10.6657 23.8229 9.33625C25.0768 7.27827 22.7217 4.92319 20.6638 6.17713C19.3343 6.98717 17.6011 6.26924 17.2338 4.75641ZM15 19.5C17.4853 19.5 19.5 17.4853 19.5 15C19.5 12.5147 17.4853 10.5 15 10.5C12.5147 10.5 10.5 12.5147 10.5 15C10.5 17.4853 12.5147 19.5 15 19.5Z" fill="#FF8400"/>
</svg>
